<?xml version="1.0" encoding="UTF-8"?>
<!DOCTYPE svg PUBLIC "-//W3C//DTD SVG 1.1//EN" "http://www.w3.org/Graphics/SVG/1.1/DTD/svg11.dtd">
<svg xmlns="http://www.w3.org/2000/svg" version="1.1" width="16px" height="16px" style="shape-rendering:geometricPrecision; text-rendering:geometricPrecision; image-rendering:optimizeQuality; fill-rule:evenodd; clip-rule:evenodd" xmlns:xlink="http://www.w3.org/1999/xlink">
<g><path style="opacity:0.884" fill="#f7bf0f" d="M 12.5,7.5 C 12.8795,4.43311 11.8795,3.43311 9.5,4.5C 9.16667,4.5 8.83333,4.5 8.5,4.5C 9.40276,1.90266 8.73609,1.40266 6.5,3C 7.05596,3.38258 7.38929,3.88258 7.5,4.5C 6.83333,4.83333 6.16667,5.16667 5.5,5.5C 4.83333,6.16667 4.16667,6.83333 3.5,7.5C 2.83333,7.5 2.16667,7.5 1.5,7.5C 1.08121,2.75243 3.24788,0.4191 8,0.5C 13.0948,0.734844 14.5948,3.06818 12.5,7.5 Z"/></g>
<g><path style="opacity:1" fill="#69a0b7" d="M 8.5,4.5 C 8.16667,4.5 7.83333,4.5 7.5,4.5C 7.38929,3.88258 7.05596,3.38258 6.5,3C 8.73609,1.40266 9.40276,1.90266 8.5,4.5 Z"/></g>
<g><path style="opacity:1" fill="#63b147" d="M 5.5,5.5 C 3.66298,5.36055 3.32964,4.69388 4.5,3.5C 5.29755,3.95689 5.63088,4.62356 5.5,5.5 Z"/></g>
<g><path style="opacity:0.92" fill="#fcbd07" d="M 7.5,4.5 C 7.83333,4.5 8.16667,4.5 8.5,4.5C 8.83333,4.5 9.16667,4.5 9.5,4.5C 9.55688,5.60895 9.89022,6.60895 10.5,7.5C 10.5,9.83333 10.5,12.1667 10.5,14.5C 4.81217,15.469 1.81217,13.1357 1.5,7.5C 2.16667,7.5 2.83333,7.5 3.5,7.5C 4.16667,6.83333 4.83333,6.16667 5.5,5.5C 6.16667,5.16667 6.83333,4.83333 7.5,4.5 Z"/></g>
<g><path style="opacity:1" fill="#f4da93" d="M 12.5,7.5 C 12.5,7.83333 12.5,8.16667 12.5,8.5C 11.8333,8.16667 11.1667,7.83333 10.5,7.5C 9.89022,6.60895 9.55688,5.60895 9.5,4.5C 11.8795,3.43311 12.8795,4.43311 12.5,7.5 Z"/></g>
<g><path style="opacity:1" fill="#ff4e00" d="M 3.5,7.5 C 5.33702,7.63945 5.67036,8.30612 4.5,9.5C 3.70245,9.04311 3.36912,8.37644 3.5,7.5 Z"/></g>
<g><path style="opacity:0.628" fill="#403f3d" d="M 10.5,7.5 C 11.1667,7.83333 11.8333,8.16667 12.5,8.5C 12.702,10.9496 12.3686,13.283 11.5,15.5C 11.1667,15.5 10.8333,15.5 10.5,15.5C 10.5,15.1667 10.5,14.8333 10.5,14.5C 10.5,12.1667 10.5,9.83333 10.5,7.5 Z"/></g>
</svg>
